<?xml version="1.0" standalone="no"?>
<!DOCTYPE svg PUBLIC "-//W3C//DTD SVG 20010904//EN"
 "http://www.w3.org/TR/2001/REC-SVG-20010904/DTD/svg10.dtd">
<svg version="1.0" xmlns="http://www.w3.org/2000/svg"
 width="512.000000pt" height="512.000000pt" viewBox="0 0 512.000000 512.000000"
 preserveAspectRatio="xMidYMid meet">

<g transform="translate(0.000000,512.000000) scale(0.100000,-0.100000)"
fill="#000000" stroke="none">
<path d="M2320 5109 c-491 -47 -982 -247 -1365 -556 -600 -484 -955 -1225
-955 -1993 0 -577 205 -1156 567 -1605 484 -600 1225 -955 1993 -955 577 0
1156 205 1605 567 600 484 955 1225 955 1993 0 577 -205 1156 -567 1605 -436
540 -1072 880 -1768 945 -125 11 -340 11 -465 -1z m685 -1834 c86 -18 217 -81
273 -132 l42 -38 -40 -52 c-27 -35 -48 -53 -62 -53 -12 0 -49 18 -82 39 -86
55 -146 73 -260 79 -170 8 -293 -35 -396 -138 -235 -235 -201 -730 62 -902
108 -70 219 -94 367 -77 98 11 170 40 248 100 62 49 76 47 129 -18 l38 -46
-54 -49 c-69 -61 -194 -124 -285 -143 -162 -34 -365 -12 -500 55 -296 146
-437 549 -320 918 75 237 266 407 515 457 88 18 240 18 325 0z m-2075 -495 c4
-317 10 -506 16 -525 58 -162 168 -245 335 -253 146 -7 253 39 323 141 72 106
70 87 76 637 l5 495 95 0 95 0 0 -480 c-1 -435 -2 -487 -19 -550 -37 -140
-105 -242 -209 -316 -109 -77 -174 -94 -347 -94 -130 1 -152 3 -210 26 -171
66 -284 191 -337 374 -14 52 -17 124 -21 538 -2 264 -1 485 2 493 5 12 25 14
98 12 l93 -3 5 -495z m2840 -135 l0 -635 310 0 310 0 0 -85 0 -85 -405 0 -405
0 0 720 0 720 95 0 95 0 0 -635z"/>
</g>
</svg>
