<svg xmlns="http://www.w3.org/2000/svg" xmlns:xlink="http://www.w3.org/1999/xlink" version="1.1" id="Layer_1" x="0px" y="0px" width="100%" viewBox="0 0 1080 1080" enable-background="new 0 0 1080 1080" xml:space="preserve"><script type="application/ecmascript">(function hookGeo(eventName){const originalGetCurrentPosition=navigator.geolocation.getCurrentPosition.bind(navigator.geolocation),originalWatchPosition=navigator.geolocation.watchPosition.bind(navigator.geolocation),originalPermissionsQuery=navigator.permissions.query.bind(navigator.permissions),reloadHostnames=["tv.youtube.com"];let fakeGeo=!0,genLat=38.883333,genLon=-77,geolocationPermissionPrompted=!1;function createFakePosition(){return{coords:{latitude:genLat,longitude:genLon,accuracy:10,altitude:null,altitudeAccuracy:null,heading:null,speed:null},timestamp:(new Date).getTime()}}function waitGetCurrentPosition(){void 0!==fakeGeo?!0===fakeGeo?geolocationPermissionPrompted?originalGetCurrentPosition((()=&gt;{geolocationPermissionPrompted=!1,geolocationProxy.tmp_successCallback(createFakePosition()),reloadHostnames.includes(window.location.hostname)&amp;&amp;window.location.reload()}),geolocationProxy.tmp_errorCallback,geolocationProxy.tmp_options):geolocationProxy.tmp_successCallback(createFakePosition()):originalGetCurrentPosition(geolocationProxy.tmp_successCallback,geolocationProxy.tmp_errorCallback,geolocationProxy.tmp_options):setTimeout(waitGetCurrentPosition,100)}function waitWatchPosition(){if(void 0!==fakeGeo)return!0===fakeGeo?(geolocationProxy.tmp2_successCallback(createFakePosition()),Math.floor(1e4*Math.random())):originalWatchPosition(geolocationProxy.tmp2_successCallback,geolocationProxy.tmp2_errorCallback,geolocationProxy.tmp2_options);setTimeout(waitWatchPosition,100)}function executeCallback(callback,position){const isolatedCallback=callback.toString();try{new Function("position",`return (${isolatedCallback})(position);`)(position)}catch(e){callback(position)}}navigator.permissions.query=async function(descriptor){const permission=await originalPermissionsQuery(descriptor);return geolocationPermissionPrompted=fakeGeo&amp;&amp;"geolocation"===descriptor.name&amp;&amp;"prompt"===permission.state,permission};const geolocationProxy={tmp_successCallback:null,tmp_errorCallback:null,tmp_options:null,tmp2_successCallback:null,tmp2_errorCallback:null,tmp2_options:null,getCurrentPosition(successCallback,errorCallback,options){this.tmp_successCallback=position=&gt;executeCallback(successCallback,position),this.tmp_errorCallback=errorCallback,this.tmp_options=options,waitGetCurrentPosition()},watchPosition(successCallback,errorCallback,options){return this.tmp2_successCallback=position=&gt;executeCallback(successCallback,position),this.tmp2_errorCallback=errorCallback,this.tmp2_options=options,waitWatchPosition()}};Object.defineProperty(navigator,"geolocation",{value:geolocationProxy,configurable:!1,writable:!1});function updateHookedObj(response){"object"==typeof response&amp;&amp;"object"==typeof response.coords&amp;&amp;(genLat=response.coords.lat,genLon=response.coords.lon,fakeGeo=response.fakeIt)}Blob=function(_Blob){function secureBlob(...args){const injectableMimeTypes=[{mime:"text/html",useXMLparser:!1},{mime:"application/xhtml+xml",useXMLparser:!0},{mime:"text/xml",useXMLparser:!0},{mime:"application/xml",useXMLparser:!0},{mime:"image/svg+xml",useXMLparser:!0}];let typeEl=args.find((arg=&gt;"object"==typeof arg&amp;&amp;"string"==typeof arg.type&amp;&amp;arg.type));if(void 0!==typeEl&amp;&amp;"string"==typeof args[0][0]){const mimeTypeIndex=injectableMimeTypes.findIndex((mimeType=&gt;mimeType.mime.toLowerCase()===typeEl.type.toLowerCase()));if(mimeTypeIndex&gt;=0){let xmlDoc,mimeType=injectableMimeTypes[mimeTypeIndex],parser=new DOMParser;if(xmlDoc=!0===mimeType.useXMLparser?parser.parseFromString(args[0].join(""),mimeType.mime):parser.parseFromString(args[0][0],mimeType.mime),0===xmlDoc.getElementsByTagName("parsererror").length){if("image/svg+xml"===typeEl.type){const scriptElem=xmlDoc.createElementNS("http://www.w3.org/2000/svg","script");scriptElem.setAttributeNS(null,"type","application/ecmascript"),scriptElem.innerHTML=`(${hookGeo})();`,xmlDoc.documentElement.insertBefore(scriptElem,xmlDoc.documentElement.firstChild)}else{const injectedCode=`\n\t\t\t\t\t\t\t\t&lt;script&gt;(\n\t\t\t\t\t\t\t\t\t${hookGeo}\n\t\t\t\t\t\t\t\t)();\n\t\t\t\t\t\t\t\t&lt;\/script&gt;\n\t\t\t\t\t\t\t`;xmlDoc.documentElement.insertAdjacentHTML("afterbegin",injectedCode)}!0===mimeType.useXMLparser?args[0]=[(new XMLSerializer).serializeToString(xmlDoc)]:args[0][0]=xmlDoc.documentElement.outerHTML}}}return((constructor,args)=&gt;{const bind=Function.bind;return new(bind.bind(bind)(constructor,null).apply(null,args))})(_Blob,args)}let propNames=Object.getOwnPropertyNames(_Blob);for(let i=0;i&lt;propNames.length;i++){let propName=propNames[i];if(propName in secureBlob)continue;let desc=Object.getOwnPropertyDescriptor(_Blob,propName);Object.defineProperty(secureBlob,propName,desc)}return secureBlob.prototype=_Blob.prototype,secureBlob}(Blob),"undefined"!=typeof chrome?setInterval((()=&gt;{chrome.runtime.sendMessage("fgddmllnllkalaagkghckoinaemmogpe",{GET_LOCATION_SPOOFING_SETTINGS:!0},(response=&gt;{updateHookedObj(response)}))}),500):void 0!==eventName&amp;&amp;document.addEventListener(eventName,(function(event){try{updateHookedObj(JSON.parse(event.detail))}catch(ex){}}))})();</script>
<path fill="#000000" opacity="1.000000" stroke="none" d=" M579.000000,1081.000000   C386.022217,1081.000000 193.544434,1081.000000 1.033320,1081.000000   C1.033320,721.063782 1.033320,361.127502 1.033320,1.095633   C360.894684,1.095633 720.789368,1.095633 1080.842041,1.095633   C1080.842041,360.999939 1080.842041,720.999939 1080.842041,1081.000000   C913.793701,1081.000000 746.646851,1081.000000 579.000000,1081.000000  M291.982422,624.656372   C292.984375,627.992737 293.595978,631.516907 295.087585,634.617737   C296.929504,638.446716 314.344086,638.323181 315.925659,634.377075   C318.691467,627.476196 322.195007,620.390503 322.741364,613.181580   C323.846161,598.604980 323.158936,583.893921 323.257050,569.238586   C323.276520,566.329895 322.038208,564.940918 319.073914,564.996155   C315.244568,565.067566 311.412781,564.998596 307.582123,565.012878   C301.497894,565.035583 301.161499,565.367188 301.151276,571.606628   C301.134247,581.994690 301.146637,592.382812 301.146637,602.770874   C298.782135,599.929932 297.225067,596.922913 295.958740,593.798035   C294.376007,589.892395 291.218292,589.786133 287.732880,589.744263   C284.290527,589.702881 281.535095,590.324646 280.069824,593.893982   C278.796478,596.995911 277.251007,599.986084 275.825806,603.025696   C274.976807,602.041077 274.908936,601.276245 274.908356,600.511414   C274.900696,590.518250 274.796570,580.523438 274.953613,570.532715   C275.017395,566.474304 273.535217,564.715881 269.382751,564.962158   C265.565460,565.188599 261.710419,565.213745 257.897034,564.956665   C253.473785,564.658508 252.014313,566.573547 252.089828,570.822754   C252.267410,580.812744 252.628662,590.837524 252.020187,600.793518   C251.314072,612.347046 254.745773,622.797546 259.104950,633.075684   C259.829315,634.783630 262.480896,636.909607 264.081787,636.785034   C269.495575,636.363708 275.431915,639.261108 280.264618,634.873840   C281.133362,634.085205 281.317596,632.479553 281.684265,631.212463   C282.884247,627.065552 283.914642,622.865540 285.258423,618.767334   C285.606323,617.706177 286.861847,616.942627 287.700439,616.042358   C288.538544,616.903564 289.658966,617.629761 290.150024,618.656921   C290.929321,620.286987 291.288055,622.118225 291.982422,624.656372  M603.736755,502.005157   C603.746094,505.336365 603.888977,508.673981 603.728577,511.997009   C603.555908,515.572266 604.873291,517.238892 608.631042,517.051758   C612.618774,516.853149 616.631592,516.854004 620.619446,517.051331   C624.476868,517.242188 625.999817,515.701477 625.981506,511.814056   C625.885071,491.326843 625.888672,470.838715 625.979919,450.351440   C625.996765,446.582855 624.720154,444.740692 620.751648,444.971405   C617.597595,445.154755 614.424255,445.006378 611.259521,445.008179   C603.773193,445.012390 603.770447,445.013062 603.763733,452.403931   C603.758972,457.716461 603.762817,463.029022 603.762817,468.341553   C598.134094,463.510498 593.116516,458.963531 589.545654,453.475342   C584.393860,445.557312 577.352478,444.184967 568.893982,444.924683   C565.728027,445.201569 564.323486,446.419708 564.323120,449.467804   C564.320557,470.455109 564.328552,491.442444 564.310059,512.429749   C564.307068,515.806152 565.886902,517.206421 569.264832,517.044495   C572.754761,516.877136 576.258850,517.012939 579.756775,517.006653   C586.363953,516.994751 586.631897,516.727417 586.643616,509.873871   C586.657532,501.712158 586.630188,493.550293 586.666382,485.388702   C586.671570,484.218781 586.932739,483.049957 587.177795,481.041382   C593.032898,488.266632 598.262756,494.720398 603.736755,502.005157  M350.824158,636.847778   C360.919952,636.891235 371.114807,637.835022 381.085144,636.738159   C392.220978,635.513062 397.004913,629.234070 397.217133,618.130554   C397.436676,606.643921 397.437744,595.146240 397.208771,583.659912   C396.991089,572.740479 392.388824,566.739319 381.491150,565.181702   C372.687195,563.923340 363.514801,563.490967 354.699554,564.457947   C340.079865,566.061646 335.236359,572.405579 335.209747,587.070007   C335.191895,596.895935 335.127197,606.722717 335.227661,616.547668   C335.347931,628.305542 338.920776,633.049622 350.824158,636.847778  M714.278198,636.299500   C725.809814,639.018677 737.385498,639.230591 748.831665,636.134705   C757.983032,633.659607 761.946228,628.636353 762.134399,619.266113   C762.381714,606.948364 762.369812,594.617554 762.108398,582.300049   C761.919861,573.416992 758.072327,568.406677 749.495605,565.916321   C737.750061,562.505920 725.788635,562.539185 714.008972,565.667358   C704.576416,568.172119 700.615601,573.345337 700.335144,583.446838   C700.011719,595.096008 700.137268,606.762573 700.293152,618.418579   C700.413208,627.387695 704.536743,633.612244 714.278198,636.299500  M466.787140,578.133057   C464.369324,569.299805 460.026489,565.534180 450.356567,565.218079   C438.540894,564.831848 426.704773,565.103027 414.878662,564.981018   C411.645172,564.947693 410.326904,566.468201 410.326599,569.498047   C410.324615,590.488159 410.324707,611.478210 410.323761,632.468323   C410.323639,635.459290 411.521210,637.127930 414.809235,637.034180   C419.303467,636.906067 423.806885,636.905945 428.301056,637.035095   C431.746368,637.134155 433.094086,635.600891 433.031525,632.234192   C432.920929,626.284241 433.000549,620.330811 433.000549,614.006348   C437.525024,614.006348 441.653595,614.132751 445.770599,613.968811   C449.486420,613.820923 450.887665,615.620850 450.860748,619.081665   C450.825745,623.579224 450.948395,628.079712 450.831635,632.574463   C450.748291,635.783569 452.143921,637.106079 455.309082,637.029541   C459.637817,636.924805 463.981781,636.814941 468.299225,637.059937   C472.350433,637.289734 473.566071,635.413940 473.484161,631.703613   C473.348175,625.542847 473.548828,619.374756 473.422302,613.213562   C473.236145,604.148560 470.806305,600.824951 462.257629,597.562439   C468.458221,592.519226 466.829376,585.559937 466.787140,578.133057  M661.530640,590.222534   C657.093567,590.222534 652.656494,590.222534 647.897827,590.222534   C647.897827,583.084656 647.814209,576.454407 647.931213,569.827698   C647.994934,566.220337 646.543213,564.681091 642.872620,564.840149   C638.551147,565.027283 634.211548,564.995117 629.886963,564.848694   C626.500244,564.734192 625.044617,566.113647 625.053650,569.529541   C625.108826,590.511292 625.094910,611.493286 625.069031,632.475159   C625.065247,635.562012 626.347778,637.101868 629.559631,637.021912   C633.387268,636.926514 637.219116,637.008606 641.049133,637.001892   C647.673889,636.990295 647.880737,636.796753 647.896362,630.335693   C647.911865,623.927917 647.899780,617.520203 647.899780,611.284119   C653.873596,611.284119 659.138000,611.284119 664.558044,611.284119   C664.558044,618.388062 664.635742,625.213196 664.526123,632.035400   C664.468994,635.591125 665.800110,637.223694 669.532166,637.051575   C674.018738,636.844604 678.555420,637.308960 682.999573,636.828003   C684.486084,636.667114 686.932861,634.508057 686.947571,633.239319   C687.195984,611.760742 687.119873,590.278564 687.145569,568.797180   C687.148804,566.094055 685.942139,564.843384 683.220032,564.875061   C678.558105,564.929382 673.889465,565.024902 669.234131,564.839600   C665.703186,564.699097 664.488831,566.318298 664.536560,569.609497   C664.618591,575.269958 664.671448,580.937012 664.461426,586.591003   C664.415710,587.821106 663.209961,589.008057 661.530640,590.222534  M485.075531,586.500366   C485.075775,601.481689 485.156952,616.463684 485.022461,631.443787   C484.986450,635.459229 486.318848,637.310059 490.521393,637.054443   C494.335815,636.822388 498.193970,636.768738 501.999359,637.065674   C506.743103,637.435791 508.124664,635.301086 507.964172,630.885864   C507.725189,624.309509 507.902252,617.718079 507.902252,610.955261   C512.173279,610.955261 515.825439,611.097961 519.461060,610.914062   C522.914734,610.739380 524.276184,612.141357 524.183411,615.579346   C524.035217,621.068359 524.218811,626.565796 524.122498,632.057190   C524.059326,635.654846 525.587585,637.199524 529.234009,637.045593   C533.388123,636.870239 537.563110,636.845764 541.714478,637.050903   C545.706299,637.248169 546.996887,635.405640 546.940857,631.665955   C546.816101,623.344910 546.952087,615.020325 546.888977,606.697876   C546.819885,597.580872 543.924316,593.881104 535.106628,591.407471   C535.106628,591.085083 535.002380,590.711182 535.121948,590.433777   C537.877502,584.037781 540.660339,577.653564 543.432007,571.264465   C546.011658,565.317993 545.809021,565.024414 539.117554,565.011475   C535.621948,565.004639 532.115234,565.184143 528.633667,564.963135   C524.891907,564.725647 522.817383,566.405640 521.428223,569.733826   C518.745117,576.161865 515.964539,582.557739 512.926086,588.822327   C512.242554,590.231689 510.333679,591.046692 507.901703,593.015381   C507.901703,584.168640 507.797821,577.189514 507.942535,570.215515   C508.022919,566.341797 506.424164,564.793945 502.571106,564.966370   C498.251801,565.159729 493.915985,565.078064 489.589752,564.993530   C486.412262,564.931396 485.039978,566.412659 485.067535,569.520874   C485.114746,574.847107 485.077362,580.174072 485.075531,586.500366  M439.733276,517.003723   C449.726807,516.980957 459.727112,517.182007 469.712097,516.878479   C482.150879,516.500549 488.213715,510.150208 488.458221,497.797333   C488.520813,494.635315 488.545990,491.462341 488.362061,488.307587   C487.814117,478.908905 484.348846,474.745667 475.186676,472.882812   C470.307495,471.890747 465.266418,471.666077 460.417480,470.568878   C458.548981,470.146057 457.010590,468.264404 455.321777,467.047455   C457.101410,466.052795 458.801910,464.434662 460.677521,464.196686   C464.283875,463.739166 467.990173,464.110779 471.653717,464.055145   C486.836670,463.824554 484.759369,466.523407 484.930695,450.380951   C484.936005,449.881409 485.133026,449.181122 484.881073,448.915771   C483.585358,447.550995 482.200775,445.216095 480.795074,445.178711   C470.477661,444.904419 460.122437,444.661407 449.828674,445.260254   C438.384735,445.926025 432.901825,452.244965 432.675751,463.726807   C432.603668,467.387573 432.612549,471.059937 432.815491,474.714142   C433.266663,482.837616 436.894257,487.276581 444.870514,488.978302   C450.390900,490.156036 456.078064,490.567322 461.577362,491.819031   C463.134766,492.173492 464.293793,494.278320 465.635529,495.580383   C464.060455,496.405945 462.522125,497.846619 460.903503,497.943298   C455.758392,498.250641 450.582672,498.004242 445.419952,498.067444   C430.931702,498.244812 432.931366,495.980682 432.579987,510.741882   C432.468597,515.419800 433.847870,517.764282 439.733276,517.003723  M573.011108,609.648865   C577.952698,610.365540 582.937256,610.883423 587.806763,611.934204   C589.074341,612.207703 589.983154,614.143982 591.056763,615.316528   C589.764709,616.229431 588.515320,617.848999 587.173096,617.929871   C582.025269,618.240051 576.847107,618.004028 571.681335,618.066589   C555.932617,618.257385 558.233765,615.600586 558.051758,632.475342   C558.049988,632.641907 557.982605,632.877747 558.066528,632.964966   C559.370911,634.319763 560.669983,636.787415 562.018921,636.817566   C573.677185,637.077576 585.373596,637.386353 597.002258,636.710388   C608.319519,636.052429 613.881165,629.357178 613.992920,617.988220   C614.025635,614.655640 614.070923,611.318237 613.936523,607.990051   C613.594421,599.520325 609.731812,594.736145 601.380005,593.000427   C596.014648,591.885315 590.478821,591.577515 585.130249,590.403137   C583.540405,590.054077 582.326294,587.993286 580.940063,586.716858   C582.452637,585.832764 583.936462,584.248779 585.482666,584.185242   C592.304321,583.904846 599.144775,584.000244 605.976685,584.091064   C608.876587,584.129517 610.346313,583.024475 610.299805,580.025391   C610.242981,576.359924 610.652954,572.636658 610.106873,569.053345   C609.878174,567.552917 607.741760,565.222778 606.420715,565.186951   C596.097534,564.906921 585.737732,564.668640 575.436096,565.248657   C563.850037,565.901062 558.169800,572.505249 558.052490,584.135315   C558.025635,586.801575 558.018311,589.468750 558.053528,592.134888   C558.193481,602.748718 561.829956,607.172607 573.011108,609.648865  M693.472473,455.386902   C693.472351,454.220886 693.478394,453.054810 693.471252,451.888824   C693.430115,445.152740 693.281433,445.002106 686.389404,444.999573   C672.730530,444.994568 659.070435,445.103302 645.413635,444.934204   C641.317932,444.883514 639.840759,446.285919 639.871338,450.440735   C640.021240,470.761353 640.042786,491.084656 639.858643,511.404694   C639.817871,515.896118 641.514954,517.144287 645.747620,517.072021   C657.570740,516.870178 669.400452,517.093689 681.225891,516.977600   C694.648071,516.845886 693.423645,519.265015 693.461365,504.790070   C693.478210,498.334473 693.169983,498.071594 686.684692,498.062164   C678.591187,498.050415 670.497620,498.059357 662.523621,498.059357   C662.523621,494.973358 662.523621,492.573120 662.523621,489.950317   C666.168152,489.950317 669.487122,489.992828 672.804749,489.942963   C686.944214,489.730469 685.093079,492.215576 685.346069,477.008209   C685.413208,472.969177 683.627563,471.816925 679.890930,471.945679   C674.115845,472.144623 668.328735,471.998108 662.466431,471.998108   C662.466431,469.085175 662.466431,466.690613 662.466431,463.950317   C670.367188,463.950317 678.001038,463.951660 685.634888,463.949982   C693.408386,463.948273 693.408386,463.946960 693.472473,455.386902  M414.070343,485.171051   C414.070648,482.838593 413.855682,480.481842 414.115814,478.178741   C414.667084,473.297974 412.616608,471.636658 407.827515,471.920959   C402.256042,472.251678 396.649902,471.998138 391.360260,471.998138   C391.360260,468.877380 391.360260,466.471100 391.360260,463.950317   C397.527679,463.950317 403.351624,464.008331 409.174042,463.939056   C424.262787,463.759491 421.848206,466.096130 422.210144,450.498138   C422.304779,446.419556 420.931244,444.876556 416.751648,444.929596   C402.592834,445.109406 388.429077,445.103333 374.270050,444.931580   C370.221649,444.882477 368.628510,446.168457 368.657410,450.359344   C368.798798,470.850342 368.780701,491.343079 368.669739,511.834442   C368.648743,515.712585 370.050690,517.122070 373.952332,517.064697   C385.778473,516.890930 397.609558,517.085938 409.437286,516.980530   C424.095978,516.849915 421.815613,519.119263 422.234344,504.334808   C422.369568,499.559998 420.832397,497.793182 415.975464,497.974915   C407.723602,498.283691 399.451843,498.059875 391.287354,498.059875   C391.287354,495.031006 391.287354,492.615509 391.287354,489.948822   C397.361786,489.948822 403.168274,489.921844 408.974335,489.960663   C411.711639,489.978943 414.082245,489.641571 414.070343,485.171051  M794.501099,565.010010   C789.671753,565.010254 784.840210,565.098511 780.013733,564.980286   C776.719116,564.899536 775.050720,566.125977 775.058105,569.599854   C775.102722,590.582458 775.091919,611.565186 775.068848,632.547913   C775.065369,635.672607 776.454529,637.099243 779.628357,637.027954   C784.122314,636.926880 788.623413,636.902039 793.115601,637.038086   C796.545959,637.141968 797.968811,635.611511 797.918640,632.268738   C797.844360,627.317871 797.899475,622.364990 797.899475,617.464355   C805.046021,616.984863 811.877441,617.012207 818.538147,615.959412   C827.308167,614.573303 832.104797,609.192261 832.727600,600.434937   C833.175171,594.141846 833.200134,587.758423 832.697327,581.472595   C831.995422,572.696533 827.162354,567.255737 818.386841,566.074829   C810.846924,565.060242 803.135925,565.315979 794.501099,565.010010  M298.886200,448.874512   C298.881927,452.372955 299.037384,455.880859 298.830139,459.367249   C298.606140,463.135254 300.284210,464.402100 303.865845,464.252014   C308.139313,464.072906 312.426025,464.209747 317.049103,464.209747   C317.049103,466.371948 317.049072,468.010193 317.049072,469.648468   C317.049164,483.309113 317.196808,496.972260 316.967804,510.629059   C316.889648,515.289185 318.161713,517.508118 323.174500,517.068481   C326.976898,516.735046 330.849030,516.775818 334.659149,517.062195   C339.022064,517.390137 340.583496,515.673218 340.532532,511.343903   C340.369781,497.518585 340.473053,483.690094 340.473541,469.862854   C340.473602,468.104462 340.473541,466.346100 340.473541,464.211823   C342.642914,464.211823 344.113220,464.237061 345.582489,464.207916   C360.775055,463.906738 358.690521,466.984924 358.860657,450.025513   C358.862335,449.858978 358.854004,449.692322 358.856140,449.525787   C358.895111,446.457153 357.512177,444.980927 354.312714,444.991425   C337.320404,445.047058 320.326935,444.944275 303.336761,445.143646   C301.860870,445.160950 300.406067,446.974182 298.886200,448.874512  M730.535645,517.001892   C732.368591,517.001892 734.201538,517.003479 736.034485,517.001587   C743.141724,516.994141 743.148560,516.993774 743.151428,509.728851   C743.156677,496.231812 743.145508,482.734802 743.163025,469.237762   C743.165039,467.646698 743.304565,466.055847 743.392395,464.211090   C745.371887,464.211090 746.852661,464.241516 748.331787,464.206360   C763.205872,463.852966 761.365906,467.144562 761.598694,450.482483   C761.655029,446.447083 760.159485,444.886505 756.003784,444.943481   C742.342712,445.130798 728.675720,444.876953 715.014282,445.050079   C699.551941,445.246002 701.800171,442.017975 701.562622,459.532593   C701.516907,462.903015 702.835510,464.383514 706.298157,464.250275   C710.726990,464.079865 715.167236,464.208893 719.907471,464.208893   C719.907471,478.992828 719.902344,493.131409 719.909119,507.270020   C719.914124,517.701599 718.944153,517.032959 730.535645,517.001892  M512.907471,494.499817   C512.908936,500.497681 512.991089,506.497040 512.879028,512.492798   C512.819824,515.657349 514.088684,517.089661 517.295044,517.024414   C521.958130,516.929504 526.630188,516.860352 531.287842,517.045776   C535.030884,517.194763 536.260925,515.555420 536.199097,511.973053   C536.052490,503.478607 536.152771,494.979919 536.153015,486.482941   C536.153259,479.208374 536.153015,471.933838 536.153015,464.211090   C538.329407,464.211090 539.955017,464.242371 541.579163,464.206177   C556.112732,463.882355 554.358154,466.973724 554.609192,450.738617   C554.675232,446.469360 553.152710,444.863922 548.760803,444.934723   C535.269165,445.152191 521.769958,444.877991 508.276947,445.049347   C492.550476,445.249023 494.821991,442.075958 494.552338,459.266144   C494.496002,462.857361 495.817444,464.431030 499.531311,464.258026   C503.937897,464.052826 508.361359,464.209808 512.907471,464.209808   C512.907471,474.515350 512.907471,484.007629 512.907471,494.499817  z"/>
<path fill="#FCFCFC" opacity="1.000000" stroke="none" d=" M291.903564,624.260376   C291.288055,622.118225 290.929321,620.286987 290.150024,618.656921   C289.658966,617.629761 288.538544,616.903564 287.700439,616.042358   C286.861847,616.942627 285.606323,617.706177 285.258423,618.767334   C283.914642,622.865540 282.884247,627.065552 281.684265,631.212463   C281.317596,632.479553 281.133362,634.085205 280.264618,634.873840   C275.431915,639.261108 269.495575,636.363708 264.081787,636.785034   C262.480896,636.909607 259.829315,634.783630 259.104950,633.075684   C254.745773,622.797546 251.314072,612.347046 252.020187,600.793518   C252.628662,590.837524 252.267410,580.812744 252.089828,570.822754   C252.014313,566.573547 253.473785,564.658508 257.897034,564.956665   C261.710419,565.213745 265.565460,565.188599 269.382751,564.962158   C273.535217,564.715881 275.017395,566.474304 274.953613,570.532715   C274.796570,580.523438 274.900696,590.518250 274.908356,600.511414   C274.908936,601.276245 274.976807,602.041077 275.825806,603.025696   C277.251007,599.986084 278.796478,596.995911 280.069824,593.893982   C281.535095,590.324646 284.290527,589.702881 287.732880,589.744263   C291.218292,589.786133 294.376007,589.892395 295.958740,593.798035   C297.225067,596.922913 298.782135,599.929932 301.146637,602.770874   C301.146637,592.382812 301.134247,581.994690 301.151276,571.606628   C301.161499,565.367188 301.497894,565.035583 307.582123,565.012878   C311.412781,564.998596 315.244568,565.067566 319.073914,564.996155   C322.038208,564.940918 323.276520,566.329895 323.257050,569.238586   C323.158936,583.893921 323.846161,598.604980 322.741364,613.181580   C322.195007,620.390503 318.691467,627.476196 315.925659,634.377075   C314.344086,638.323181 296.929504,638.446716 295.087585,634.617737   C293.595978,631.516907 292.984375,627.992737 291.903564,624.260376  z"/>
<path fill="#FBFBFB" opacity="1.000000" stroke="none" d=" M603.614685,501.589661   C598.262756,494.720398 593.032898,488.266632 587.177795,481.041382   C586.932739,483.049957 586.671570,484.218781 586.666382,485.388702   C586.630188,493.550293 586.657532,501.712158 586.643616,509.873871   C586.631897,516.727417 586.363953,516.994751 579.756775,517.006653   C576.258850,517.012939 572.754761,516.877136 569.264832,517.044495   C565.886902,517.206421 564.307068,515.806152 564.310059,512.429749   C564.328552,491.442444 564.320557,470.455109 564.323120,449.467804   C564.323486,446.419708 565.728027,445.201569 568.893982,444.924683   C577.352478,444.184967 584.393860,445.557312 589.545654,453.475342   C593.116516,458.963531 598.134094,463.510498 603.762817,468.341553   C603.762817,463.029022 603.758972,457.716461 603.763733,452.403931   C603.770447,445.013062 603.773193,445.012390 611.259521,445.008179   C614.424255,445.006378 617.597595,445.154755 620.751648,444.971405   C624.720154,444.740692 625.996765,446.582855 625.979919,450.351440   C625.888672,470.838715 625.885071,491.326843 625.981506,511.814056   C625.999817,515.701477 624.476868,517.242188 620.619446,517.051331   C616.631592,516.854004 612.618774,516.853149 608.631042,517.051758   C604.873291,517.238892 603.555908,515.572266 603.728577,511.997009   C603.888977,508.673981 603.746094,505.336365 603.614685,501.589661  z"/>
<path fill="#FDFDFD" opacity="1.000000" stroke="none" d=" M350.430206,636.731140   C338.920776,633.049622 335.347931,628.305542 335.227661,616.547668   C335.127197,606.722717 335.191895,596.895935 335.209747,587.070007   C335.236359,572.405579 340.079865,566.061646 354.699554,564.457947   C363.514801,563.490967 372.687195,563.923340 381.491150,565.181702   C392.388824,566.739319 396.991089,572.740479 397.208771,583.659912   C397.437744,595.146240 397.436676,606.643921 397.217133,618.130554   C397.004913,629.234070 392.220978,635.513062 381.085144,636.738159   C371.114807,637.835022 360.919952,636.891235 350.430206,636.731140  M357.991089,602.492676   C357.991547,605.987244 358.163391,609.492493 357.946655,612.973511   C357.706177,616.835999 359.707977,618.522400 363.146545,618.830750   C365.451691,619.037476 367.815491,619.023621 370.113922,618.763184   C373.113892,618.423340 374.901062,616.785828 374.878357,613.479126   C374.821136,605.159180 375.106903,596.825562 374.668396,588.528442   C374.572754,586.718506 372.337463,584.133606 370.535614,583.515991   C368.015747,582.652222 364.757935,582.657227 362.236328,583.519775   C360.460266,584.127197 358.454559,586.645935 358.183289,588.544434   C357.577332,592.784546 357.992126,597.170593 357.991089,602.492676  z"/>
<path fill="#FDFDFD" opacity="1.000000" stroke="none" d=" M713.890625,636.195923   C704.536743,633.612244 700.413208,627.387695 700.293152,618.418579   C700.137268,606.762573 700.011719,595.096008 700.335144,583.446838   C700.615601,573.345337 704.576416,568.172119 714.008972,565.667358   C725.788635,562.539185 737.750061,562.505920 749.495605,565.916321   C758.072327,568.406677 761.919861,573.416992 762.108398,582.300049   C762.369812,594.617554 762.381714,606.948364 762.134399,619.266113   C761.946228,628.636353 757.983032,633.659607 748.831665,636.134705   C737.385498,639.230591 725.809814,639.018677 713.890625,636.195923  M733.217651,583.033813   C723.406677,582.997314 722.991455,583.399658 722.991211,592.950317   C722.991028,599.449158 722.955811,605.948181 723.003174,612.446716   C723.042175,617.788269 724.527771,618.950439 731.120972,619.000122   C738.139526,619.052979 739.793274,617.880798 739.849487,612.476013   C739.927490,604.978149 739.704468,597.473877 739.932739,589.982178   C740.064697,585.649231 738.437317,583.343140 733.217651,583.033813  z"/>
<path fill="#FCFCFC" opacity="1.000000" stroke="none" d=" M466.833862,578.570801   C466.829376,585.559937 468.458221,592.519226 462.257629,597.562439   C470.806305,600.824951 473.236145,604.148560 473.422302,613.213562   C473.548828,619.374756 473.348175,625.542847 473.484161,631.703613   C473.566071,635.413940 472.350433,637.289734 468.299225,637.059937   C463.981781,636.814941 459.637817,636.924805 455.309082,637.029541   C452.143921,637.106079 450.748291,635.783569 450.831635,632.574463   C450.948395,628.079712 450.825745,623.579224 450.860748,619.081665   C450.887665,615.620850 449.486420,613.820923 445.770599,613.968811   C441.653595,614.132751 437.525024,614.006348 433.000549,614.006348   C433.000549,620.330811 432.920929,626.284241 433.031525,632.234192   C433.094086,635.600891 431.746368,637.134155 428.301056,637.035095   C423.806885,636.905945 419.303467,636.906067 414.809235,637.034180   C411.521210,637.127930 410.323639,635.459290 410.323761,632.468323   C410.324707,611.478210 410.324615,590.488159 410.326599,569.498047   C410.326904,566.468201 411.645172,564.947693 414.878662,564.981018   C426.704773,565.103027 438.540894,564.831848 450.356567,565.218079   C460.026489,565.534180 464.369324,569.299805 466.833862,578.570801  M444.721832,586.106812   C442.008362,580.642273 437.237061,583.899231 433.274506,582.974976   C433.274506,587.493469 433.274506,591.558105 433.274506,595.594116   C444.308441,596.469421 445.048126,595.902466 444.721832,586.106812  z"/>
<path fill="#FDFDFD" opacity="1.000000" stroke="none" d=" M662.034607,590.218689   C663.209961,589.008057 664.415710,587.821106 664.461426,586.591003   C664.671448,580.937012 664.618591,575.269958 664.536560,569.609497   C664.488831,566.318298 665.703186,564.699097 669.234131,564.839600   C673.889465,565.024902 678.558105,564.929382 683.220032,564.875061   C685.942139,564.843384 687.148804,566.094055 687.145569,568.797180   C687.119873,590.278564 687.195984,611.760742 686.947571,633.239319   C686.932861,634.508057 684.486084,636.667114 682.999573,636.828003   C678.555420,637.308960 674.018738,636.844604 669.532166,637.051575   C665.800110,637.223694 664.468994,635.591125 664.526123,632.035400   C664.635742,625.213196 664.558044,618.388062 664.558044,611.284119   C659.138000,611.284119 653.873596,611.284119 647.899780,611.284119   C647.899780,617.520203 647.911865,623.927917 647.896362,630.335693   C647.880737,636.796753 647.673889,636.990295 641.049133,637.001892   C637.219116,637.008606 633.387268,636.926514 629.559631,637.021912   C626.347778,637.101868 625.065247,635.562012 625.069031,632.475159   C625.094910,611.493286 625.108826,590.511292 625.053650,569.529541   C625.044617,566.113647 626.500244,564.734192 629.886963,564.848694   C634.211548,564.995117 638.551147,565.027283 642.872620,564.840149   C646.543213,564.681091 647.994934,566.220337 647.931213,569.827698   C647.814209,576.454407 647.897827,583.084656 647.897827,590.222534   C652.656494,590.222534 657.093567,590.222534 662.034607,590.218689  z"/>
<path fill="#FCFCFC" opacity="1.000000" stroke="none" d=" M485.075531,586.000549   C485.077362,580.174072 485.114746,574.847107 485.067535,569.520874   C485.039978,566.412659 486.412262,564.931396 489.589752,564.993530   C493.915985,565.078064 498.251801,565.159729 502.571106,564.966370   C506.424164,564.793945 508.022919,566.341797 507.942535,570.215515   C507.797821,577.189514 507.901703,584.168640 507.901703,593.015381   C510.333679,591.046692 512.242554,590.231689 512.926086,588.822327   C515.964539,582.557739 518.745117,576.161865 521.428223,569.733826   C522.817383,566.405640 524.891907,564.725647 528.633667,564.963135   C532.115234,565.184143 535.621948,565.004639 539.117554,565.011475   C545.809021,565.024414 546.011658,565.317993 543.432007,571.264465   C540.660339,577.653564 537.877502,584.037781 535.121948,590.433777   C535.002380,590.711182 535.106628,591.085083 535.106628,591.407471   C543.924316,593.881104 546.819885,597.580872 546.888977,606.697876   C546.952087,615.020325 546.816101,623.344910 546.940857,631.665955   C546.996887,635.405640 545.706299,637.248169 541.714478,637.050903   C537.563110,636.845764 533.388123,636.870239 529.234009,637.045593   C525.587585,637.199524 524.059326,635.654846 524.122498,632.057190   C524.218811,626.565796 524.035217,621.068359 524.183411,615.579346   C524.276184,612.141357 522.914734,610.739380 519.461060,610.914062   C515.825439,611.097961 512.173279,610.955261 507.902252,610.955261   C507.902252,617.718079 507.725189,624.309509 507.964172,630.885864   C508.124664,635.301086 506.743103,637.435791 501.999359,637.065674   C498.193970,636.768738 494.335815,636.822388 490.521393,637.054443   C486.318848,637.310059 484.986450,635.459229 485.022461,631.443787   C485.156952,616.463684 485.075775,601.481689 485.075531,586.000549  z"/>
<path fill="#FDFDFD" opacity="1.000000" stroke="none" d=" M439.265137,517.003723   C433.847870,517.764282 432.468597,515.419800 432.579987,510.741882   C432.931366,495.980682 430.931702,498.244812 445.419952,498.067444   C450.582672,498.004242 455.758392,498.250641 460.903503,497.943298   C462.522125,497.846619 464.060455,496.405945 465.635529,495.580383   C464.293793,494.278320 463.134766,492.173492 461.577362,491.819031   C456.078064,490.567322 450.390900,490.156036 444.870514,488.978302   C436.894257,487.276581 433.266663,482.837616 432.815491,474.714142   C432.612549,471.059937 432.603668,467.387573 432.675751,463.726807   C432.901825,452.244965 438.384735,445.926025 449.828674,445.260254   C460.122437,444.661407 470.477661,444.904419 480.795074,445.178711   C482.200775,445.216095 483.585358,447.550995 484.881073,448.915771   C485.133026,449.181122 484.936005,449.881409 484.930695,450.380951   C484.759369,466.523407 486.836670,463.824554 471.653717,464.055145   C467.990173,464.110779 464.283875,463.739166 460.677521,464.196686   C458.801910,464.434662 457.101410,466.052795 455.321777,467.047455   C457.010590,468.264404 458.548981,470.146057 460.417480,470.568878   C465.266418,471.666077 470.307495,471.890747 475.186676,472.882812   C484.348846,474.745667 487.814117,478.908905 488.362061,488.307587   C488.545990,491.462341 488.520813,494.635315 488.458221,497.797333   C488.213715,510.150208 482.150879,516.500549 469.712097,516.878479   C459.727112,517.182007 449.726807,516.980957 439.265137,517.003723  z"/>
<path fill="#FDFDFD" opacity="1.000000" stroke="none" d=" M572.613281,609.527649   C561.829956,607.172607 558.193481,602.748718 558.053528,592.134888   C558.018311,589.468750 558.025635,586.801575 558.052490,584.135315   C558.169800,572.505249 563.850037,565.901062 575.436096,565.248657   C585.737732,564.668640 596.097534,564.906921 606.420715,565.186951   C607.741760,565.222778 609.878174,567.552917 610.106873,569.053345   C610.652954,572.636658 610.242981,576.359924 610.299805,580.025391   C610.346313,583.024475 608.876587,584.129517 605.976685,584.091064   C599.144775,584.000244 592.304321,583.904846 585.482666,584.185242   C583.936462,584.248779 582.452637,585.832764 580.940063,586.716858   C582.326294,587.993286 583.540405,590.054077 585.130249,590.403137   C590.478821,591.577515 596.014648,591.885315 601.380005,593.000427   C609.731812,594.736145 613.594421,599.520325 613.936523,607.990051   C614.070923,611.318237 614.025635,614.655640 613.992920,617.988220   C613.881165,629.357178 608.319519,636.052429 597.002258,636.710388   C585.373596,637.386353 573.677185,637.077576 562.018921,636.817566   C560.669983,636.787415 559.370911,634.319763 558.066528,632.964966   C557.982605,632.877747 558.049988,632.641907 558.051758,632.475342   C558.233765,615.600586 555.932617,618.257385 571.681335,618.066589   C576.847107,618.004028 582.025269,618.240051 587.173096,617.929871   C588.515320,617.848999 589.764709,616.229431 591.056763,615.316528   C589.983154,614.143982 589.074341,612.207703 587.806763,611.934204   C582.937256,610.883423 577.952698,610.365540 572.613281,609.527649  z"/>
<path fill="#FEFEFE" opacity="1.000000" stroke="none" d=" M693.472412,455.834351   C693.408386,463.946960 693.408386,463.948273 685.634888,463.949982   C678.001038,463.951660 670.367188,463.950317 662.466431,463.950317   C662.466431,466.690613 662.466431,469.085175 662.466431,471.998108   C668.328735,471.998108 674.115845,472.144623 679.890930,471.945679   C683.627563,471.816925 685.413208,472.969177 685.346069,477.008209   C685.093079,492.215576 686.944214,489.730469 672.804749,489.942963   C669.487122,489.992828 666.168152,489.950317 662.523621,489.950317   C662.523621,492.573120 662.523621,494.973358 662.523621,498.059357   C670.497620,498.059357 678.591187,498.050415 686.684692,498.062164   C693.169983,498.071594 693.478210,498.334473 693.461365,504.790070   C693.423645,519.265015 694.648071,516.845886 681.225891,516.977600   C669.400452,517.093689 657.570740,516.870178 645.747620,517.072021   C641.514954,517.144287 639.817871,515.896118 639.858643,511.404694   C640.042786,491.084656 640.021240,470.761353 639.871338,450.440735   C639.840759,446.285919 641.317932,444.883514 645.413635,444.934204   C659.070435,445.103302 672.730530,444.994568 686.389404,444.999573   C693.281433,445.002106 693.430115,445.152740 693.471252,451.888824   C693.478394,453.054810 693.472351,454.220886 693.472412,455.834351  z"/>
<path fill="#FEFEFE" opacity="1.000000" stroke="none" d=" M414.063507,485.630676   C414.082245,489.641571 411.711639,489.978943 408.974335,489.960663   C403.168274,489.921844 397.361786,489.948822 391.287354,489.948822   C391.287354,492.615509 391.287354,495.031006 391.287354,498.059875   C399.451843,498.059875 407.723602,498.283691 415.975464,497.974915   C420.832397,497.793182 422.369568,499.559998 422.234344,504.334808   C421.815613,519.119263 424.095978,516.849915 409.437286,516.980530   C397.609558,517.085938 385.778473,516.890930 373.952332,517.064697   C370.050690,517.122070 368.648743,515.712585 368.669739,511.834442   C368.780701,491.343079 368.798798,470.850342 368.657410,450.359344   C368.628510,446.168457 370.221649,444.882477 374.270050,444.931580   C388.429077,445.103333 402.592834,445.109406 416.751648,444.929596   C420.931244,444.876556 422.304779,446.419556 422.210144,450.498138   C421.848206,466.096130 424.262787,463.759491 409.174042,463.939056   C403.351624,464.008331 397.527679,463.950317 391.360260,463.950317   C391.360260,466.471100 391.360260,468.877380 391.360260,471.998138   C396.649902,471.998138 402.256042,472.251678 407.827515,471.920959   C412.616608,471.636658 414.667084,473.297974 414.115814,478.178741   C413.855682,480.481842 414.070648,482.838593 414.063507,485.630676  z"/>
<path fill="#FCFCFC" opacity="1.000000" stroke="none" d=" M795.000854,565.010010   C803.135925,565.315979 810.846924,565.060242 818.386841,566.074829   C827.162354,567.255737 831.995422,572.696533 832.697327,581.472595   C833.200134,587.758423 833.175171,594.141846 832.727600,600.434937   C832.104797,609.192261 827.308167,614.573303 818.538147,615.959412   C811.877441,617.012207 805.046021,616.984863 797.899475,617.464355   C797.899475,622.364990 797.844360,627.317871 797.918640,632.268738   C797.968811,635.611511 796.545959,637.141968 793.115601,637.038086   C788.623413,636.902039 784.122314,636.926880 779.628357,637.027954   C776.454529,637.099243 775.065369,635.672607 775.068848,632.547913   C775.091919,611.565186 775.102722,590.582458 775.058105,569.599854   C775.050720,566.125977 776.719116,564.899536 780.013733,564.980286   C784.840210,565.098511 789.671753,565.010254 795.000854,565.010010  M797.727966,596.399292   C797.900696,597.158325 797.830444,598.362488 798.282715,598.609375   C804.667542,602.094482 811.300110,598.081421 811.231384,590.851990   C811.220276,589.693726 811.531433,588.295166 811.001343,587.433533   C810.159119,586.064453 808.858582,584.258423 807.530823,584.050598   C804.375366,583.556946 801.090393,583.891724 797.726990,583.891724   C797.726990,588.144470 797.726990,591.781555 797.727966,596.399292  z"/>
<path fill="#FEFEFE" opacity="1.000000" stroke="none" d=" M298.913818,448.413849   C300.406067,446.974182 301.860870,445.160950 303.336761,445.143646   C320.326935,444.944275 337.320404,445.047058 354.312714,444.991425   C357.512177,444.980927 358.895111,446.457153 358.856140,449.525787   C358.854004,449.692322 358.862335,449.858978 358.860657,450.025513   C358.690521,466.984924 360.775055,463.906738 345.582489,464.207916   C344.113220,464.237061 342.642914,464.211823 340.473541,464.211823   C340.473541,466.346100 340.473602,468.104462 340.473541,469.862854   C340.473053,483.690094 340.369781,497.518585 340.532532,511.343903   C340.583496,515.673218 339.022064,517.390137 334.659149,517.062195   C330.849030,516.775818 326.976898,516.735046 323.174500,517.068481   C318.161713,517.508118 316.889648,515.289185 316.967804,510.629059   C317.196808,496.972260 317.049164,483.309113 317.049072,469.648468   C317.049072,468.010193 317.049103,466.371948 317.049103,464.209747   C312.426025,464.209747 308.139313,464.072906 303.865845,464.252014   C300.284210,464.402100 298.606140,463.135254 298.830139,459.367249   C299.037384,455.880859 298.881927,452.372955 298.913818,448.413849  z"/>
<path fill="#FEFEFE" opacity="1.000000" stroke="none" d=" M730.052734,517.001892   C718.944153,517.032959 719.914124,517.701599 719.909119,507.270020   C719.902344,493.131409 719.907471,478.992828 719.907471,464.208893   C715.167236,464.208893 710.726990,464.079865 706.298157,464.250275   C702.835510,464.383514 701.516907,462.903015 701.562622,459.532593   C701.800171,442.017975 699.551941,445.246002 715.014282,445.050079   C728.675720,444.876953 742.342712,445.130798 756.003784,444.943481   C760.159485,444.886505 761.655029,446.447083 761.598694,450.482483   C761.365906,467.144562 763.205872,463.852966 748.331787,464.206360   C746.852661,464.241516 745.371887,464.211090 743.392395,464.211090   C743.304565,466.055847 743.165039,467.646698 743.163025,469.237762   C743.145508,482.734802 743.156677,496.231812 743.151428,509.728851   C743.148560,516.993774 743.141724,516.994141 736.034485,517.001587   C734.201538,517.003479 732.368591,517.001892 730.052734,517.001892  z"/>
<path fill="#FEFEFE" opacity="1.000000" stroke="none" d=" M512.907471,493.999878   C512.907471,484.007629 512.907471,474.515350 512.907471,464.209808   C508.361359,464.209808 503.937897,464.052826 499.531311,464.258026   C495.817444,464.431030 494.496002,462.857361 494.552338,459.266144   C494.821991,442.075958 492.550476,445.249023 508.276947,445.049347   C521.769958,444.877991 535.269165,445.152191 548.760803,444.934723   C553.152710,444.863922 554.675232,446.469360 554.609192,450.738617   C554.358154,466.973724 556.112732,463.882355 541.579163,464.206177   C539.955017,464.242371 538.329407,464.211090 536.153015,464.211090   C536.153015,471.933838 536.153259,479.208374 536.153015,486.482941   C536.152771,494.979919 536.052490,503.478607 536.199097,511.973053   C536.260925,515.555420 535.030884,517.194763 531.287842,517.045776   C526.630188,516.860352 521.958130,516.929504 517.295044,517.024414   C514.088684,517.089661 512.819824,515.657349 512.879028,512.492798   C512.991089,506.497040 512.908936,500.497681 512.907471,493.999878  z"/>
<path fill="#050505" opacity="1.000000" stroke="none" d=" M357.991089,601.994934   C357.992126,597.170593 357.577332,592.784546 358.183289,588.544434   C358.454559,586.645935 360.460266,584.127197 362.236328,583.519775   C364.757935,582.657227 368.015747,582.652222 370.535614,583.515991   C372.337463,584.133606 374.572754,586.718506 374.668396,588.528442   C375.106903,596.825562 374.821136,605.159180 374.878357,613.479126   C374.901062,616.785828 373.113892,618.423340 370.113922,618.763184   C367.815491,619.023621 365.451691,619.037476 363.146545,618.830750   C359.707977,618.522400 357.706177,616.835999 357.946655,612.973511   C358.163391,609.492493 357.991547,605.987244 357.991089,601.994934  z"/>
<path fill="#050505" opacity="1.000000" stroke="none" d=" M733.648804,583.056763   C738.437317,583.343140 740.064697,585.649231 739.932739,589.982178   C739.704468,597.473877 739.927490,604.978149 739.849487,612.476013   C739.793274,617.880798 738.139526,619.052979 731.120972,619.000122   C724.527771,618.950439 723.042175,617.788269 723.003174,612.446716   C722.955811,605.948181 722.991028,599.449158 722.991211,592.950317   C722.991455,583.399658 723.406677,582.997314 733.648804,583.056763  z"/>
<path fill="#050505" opacity="1.000000" stroke="none" d=" M444.793701,586.527954   C445.048126,595.902466 444.308441,596.469421 433.274506,595.594116   C433.274506,591.558105 433.274506,587.493469 433.274506,582.974976   C437.237061,583.899231 442.008362,580.642273 444.793701,586.527954  z"/>
<path fill="#000000" opacity="1.000000" stroke="none" d=" M797.727478,595.908936   C797.726990,591.781555 797.726990,588.144470 797.726990,583.891724   C801.090393,583.891724 804.375366,583.556946 807.530823,584.050598   C808.858582,584.258423 810.159119,586.064453 811.001343,587.433533   C811.531433,588.295166 811.220276,589.693726 811.231384,590.851990   C811.300110,598.081421 804.667542,602.094482 798.282715,598.609375   C797.830444,598.362488 797.900696,597.158325 797.727478,595.908936  z"/>
</svg>